<svg xmlns="http://www.w3.org/2000/svg" width="1200" height="630" viewBox="0 0 1200 630" role="img" aria-labelledby="title desc">
  <title id="title">Loving Arms Home Care Agency social preview</title>
  <desc id="desc">Premium social sharing card for Loving Arms Home Care Agency.</desc>
  <defs>
    <linearGradient id="bg" x1="0" y1="0" x2="1" y2="1"><stop stop-color="#fff"/><stop offset=".55" stop-color="#fbf9ff"/><stop offset="1" stop-color="#efe8ff"/></linearGradient>
    <linearGradient id="purple" x1="0" y1="0" x2="1" y2="1"><stop stop-color="#8d3fc7"/><stop offset="1" stop-color="#0b376d"/></linearGradient>
    <filter id="shadow" x="-20%" y="-20%" width="140%" height="140%"><feDropShadow dx="0" dy="22" stdDeviation="28" flood-color="#3e2d7e" flood-opacity=".18"/></filter>
  </defs>
  <rect width="1200" height="630" fill="url(#bg)"/>
  <circle cx="1045" cy="90" r="210" fill="#7c5cfa" opacity=".10"/>
  <circle cx="120" cy="540" r="230" fill="#0b376d" opacity=".08"/>
  <rect x="70" y="70" width="1060" height="490" rx="48" fill="#fff" filter="url(#shadow)" opacity=".94"/>
  <g transform="translate(110 116)">
    <path d="M150 215s-95-56-116-128C21 42 47 0 90 0c25 0 46 14 60 34 16-20 36-34 62-34 43 0 69 42 56 87-22 72-118 128-118 128Z" fill="none" stroke="url(#purple)" stroke-width="23" stroke-linecap="round" stroke-linejoin="round"/>
    <path d="M82 130c44-22 80-16 108 20 28-36 64-42 108-20" fill="none" stroke="#8d3fc7" stroke-width="22" stroke-linecap="round"/>
    <path d="M75 88 150 38l75 50" fill="none" stroke="#0b376d" stroke-width="12" stroke-linecap="round" stroke-linejoin="round"/>
    <rect x="139" y="68" width="18" height="18" fill="#8d3fc7"/><rect x="164" y="68" width="18" height="18" fill="#8d3fc7"/><rect x="139" y="94" width="18" height="18" fill="#8d3fc7"/><rect x="164" y="94" width="18" height="18" fill="#8d3fc7"/>
  </g>
  <text x="450" y="175" font-family="Georgia, 'Times New Roman', serif" font-size="78" fill="#1a1640" font-weight="700">Loving Arms</text>
  <text x="454" y="232" font-family="Inter, Arial, sans-serif" font-size="31" letter-spacing="12" fill="#7c2fa0" font-weight="700">HOME CARE AGENCY</text>
  <text x="454" y="304" font-family="Inter, Arial, sans-serif" font-size="42" fill="#0b376d" font-weight="800">Compassionate Care Across New Jersey</text>
  <text x="454" y="360" font-family="Inter, Arial, sans-serif" font-size="27" fill="#625f75">Licensed, bonded, and insured in-home support</text>
  <text x="454" y="401" font-family="Inter, Arial, sans-serif" font-size="27" fill="#625f75">with nurse-led care plans and certified caregivers.</text>
  <g font-family="Inter, Arial, sans-serif" font-size="24" font-weight="700" fill="#17152b">
    <rect x="454" y="454" width="190" height="54" rx="27" fill="#f3f0ff"/><text x="482" y="489">24/7 Care</text>
    <rect x="670" y="454" width="250" height="54" rx="27" fill="#f3f0ff"/><text x="699" y="489">21 NJ Counties</text>
    <rect x="946" y="454" width="130" height="54" rx="27" fill="#f3f0ff"/><text x="975" y="489">Trusted</text>
  </g>
  <text x="454" y="540" font-family="Inter, Arial, sans-serif" font-size="22" fill="#0b376d" font-weight="700">lovingarmshomecare.llc</text>
</svg>
